<?xml version="1.0" encoding="UTF-8"?>
<svg version="1.1" xmlns="http://www.w3.org/2000/svg" width="139" height="35">
<path d="M0 0 C0.99 0.33 1.98 0.66 3 1 C4.1875 4.0625 4.1875 4.0625 5 7 C6.65 5.02 8.3 3.04 10 1 C10.99 1.66 11.98 2.32 13 3 C13.2487793 4.87939453 13.2487793 4.87939453 13.07421875 7.1328125 C13.01943359 7.93847656 12.96464844 8.74414062 12.90820312 9.57421875 C12.83537109 10.41597656 12.76253906 11.25773437 12.6875 12.125 C12.62626953 12.97449219 12.56503906 13.82398438 12.50195312 14.69921875 C12.34848609 16.80053665 12.17602278 18.90045124 12 21 C11.01 20.67 10.02 20.34 9 20 C9.33 16.04 9.66 12.08 10 8 C9.34 8 8.68 8 8 8 C7.34 10.97 6.68 13.94 6 17 C5.01 17 4.02 17 3 17 C2 15 2 15 1 10 C0.34 13.3 -0.32 16.6 -1 20 C-1.66 20 -2.32 20 -3 20 C-3.33452052 12.56621057 -3.13902852 6.80122845 0 0 Z " fill="#19B2CF" transform="translate(8,7)"/>
<path d="M0 0 C-0.33 0.66 -0.66 1.32 -1 2 C-3.5625 2.625 -3.5625 2.625 -6 3 C-6.33 4.32 -6.66 5.64 -7 7 C-5.35 7 -3.7 7 -2 7 C-2 7.66 -2 8.32 -2 9 C-3.7015625 9.61875 -3.7015625 9.61875 -5.4375 10.25 C-9.09543384 11.56685398 -9.09543384 11.56685398 -9.9375 14.1875 C-9.958125 14.785625 -9.97875 15.38375 -10 16 C-9.236875 15.67 -8.47375 15.34 -7.6875 15 C-5 14 -5 14 -2 14 C-2 14.66 -2 15.32 -2 16 C-4.57213134 17.61949011 -5.67669159 18.04408751 -8.75 17.625 C-9.4925 17.41875 -10.235 17.2125 -11 17 C-13 11.25 -13 11.25 -13 9 C-12.34 9 -11.68 9 -11 9 C-10.67 7.35 -10.34 5.7 -10 4 C-10.99 4 -11.98 4 -13 4 C-12.67 3.01 -12.34 2.02 -12 1 C-10.0390625 0.234375 -10.0390625 0.234375 -7.625 -0.25 C-6.83351563 -0.42015625 -6.04203125 -0.5903125 -5.2265625 -0.765625 C-3 -1 -3 -1 0 0 Z " fill="#5A7ED0" transform="translate(63,9)"/>
<path d="M0 0 C0.99 0 1.98 0 3 0 C2.91621094 0.61488281 2.83242187 1.22976563 2.74609375 1.86328125 C2.64425781 2.67152344 2.54242188 3.47976562 2.4375 4.3125 C2.33308594 5.11300781 2.22867188 5.91351563 2.12109375 6.73828125 C1.85244822 9.16817116 1.85244822 9.16817116 3 12 C2.34 12 1.68 12 1 12 C1 13.98 1 15.96 1 18 C0.34 18 -0.32 18 -1 18 C-2 15 -2 15 -1 12 C-2.32 12 -3.64 12 -5 12 C-5.66 14.31 -6.32 16.62 -7 19 C-7.66 19 -8.32 19 -9 19 C-8.64885022 10.78309509 -8.64885022 10.78309509 -6.1875 7.8125 C-5.465625 7.214375 -4.74375 6.61625 -4 6 C-3.319375 4.9275 -2.63875 3.855 -1.9375 2.75 C-1.298125 1.8425 -0.65875 0.935 0 0 Z M-1 5 C0 7 0 7 0 7 Z M-2 7 C-1 10 -1 10 -1 10 Z " fill="#9440B1" transform="translate(106,9)"/>
<path d="M0 0 C0 0.99 0 1.98 0 3 C-0.33 2.34 -0.66 1.68 -1 1 C-2.134375 1.61875 -3.26875 2.2375 -4.4375 2.875 C-5.07558594 3.22304687 -5.71367188 3.57109375 -6.37109375 3.9296875 C-8.16618315 4.91410024 -8.16618315 4.91410024 -9 7 C-6.36 7 -3.72 7 -1 7 C-0.67 8.65 -0.34 10.3 0 12 C-1.43160268 13.00842453 -2.87051453 14.00647891 -4.3125 15 C-5.11300781 15.556875 -5.91351563 16.11375 -6.73828125 16.6875 C-9 18 -9 18 -12 18 C-12 17.01 -12 16.02 -12 15 C-9.03 13.68 -6.06 12.36 -3 11 C-4.18424326 9.58422523 -4.18424326 9.58422523 -7.5625 9.9375 C-9.2640625 9.9684375 -9.2640625 9.9684375 -11 10 C-11.8125 8.375 -11.8125 8.375 -12 6 C-6.52575958 -1.54557464 -6.52575958 -1.54557464 0 0 Z " fill="#BA2ABE" transform="translate(123,9)"/>
<path d="M0 0 C1.2065625 0.0309375 1.2065625 0.0309375 2.4375 0.0625 C2.7675 1.3825 3.0975 2.7025 3.4375 4.0625 C2.7775 4.0625 2.1175 4.0625 1.4375 4.0625 C1.4375 3.4025 1.4375 2.7425 1.4375 2.0625 C0.65375 2.5575 -0.13 3.0525 -0.9375 3.5625 C-3.5625 5.0625 -3.5625 5.0625 -5.5625 5.0625 C-5.5625 6.0525 -5.5625 7.0425 -5.5625 8.0625 C-3.2525 8.0625 -0.9425 8.0625 1.4375 8.0625 C2.0975 9.3825 2.7575 10.7025 3.4375 12.0625 C-3.67639522 18.76637244 -3.67639522 18.76637244 -8.5625 19.0625 C-8.5625 18.0725 -8.5625 17.0825 -8.5625 16.0625 C-7.99660156 15.79695313 -7.43070313 15.53140625 -6.84765625 15.2578125 C-6.11417969 14.90460937 -5.38070312 14.55140625 -4.625 14.1875 C-3.52865234 13.66542969 -3.52865234 13.66542969 -2.41015625 13.1328125 C-0.39917541 12.1940023 -0.39917541 12.1940023 0.4375 10.0625 C-0.5525 10.5575 -0.5525 10.5575 -1.5625 11.0625 C-3.56210012 11.102492 -5.56297242 11.10596799 -7.5625 11.0625 C-8.375 8.875 -8.375 8.875 -8.5625 6.0625 C-6.1875 3.3125 -6.1875 3.3125 -3.5625 1.0625 C-2.5625 0.0625 -2.5625 0.0625 0 0 Z " fill="#478ED0" transform="translate(44.5625,7.9375)"/>
<path d="M0 0 C-0.33 0.99 -0.66 1.98 -1 3 C-1.99 2.67 -2.98 2.34 -4 2 C-7.5868415 4.47051729 -7.5868415 4.47051729 -10 8 C-5.545 7.505 -5.545 7.505 -1 7 C-0.67 8.32 -0.34 9.64 0 11 C-7.11389522 17.70387244 -7.11389522 17.70387244 -12 18 C-12 17.01 -12 16.02 -12 15 C-9.36 13.68 -6.72 12.36 -4 11 C-4 10.67 -4 10.34 -4 10 C-6.31 10 -8.62 10 -11 10 C-11.8125 7.8125 -11.8125 7.8125 -12 5 C-7.97127084 0.20907884 -6.0612929 -1.43556937 0 0 Z " fill="#6E6BC9" transform="translate(74,9)"/>
<path d="M0 0 C2.625 0.25 2.625 0.25 4.5 1.3125 C6.35543095 4.50796442 5.48859251 6.73805711 4.625 10.25 C3.43261314 13.0001826 2.08607343 15.63365921 0.625 18.25 C-1.8125 17.875 -1.8125 17.875 -4.375 17.25 C-6.48441286 13.03117427 -5.8059056 7.62889791 -4.4375 3.25 C-2.87151568 0.30226481 -2.87151568 0.30226481 0 0 Z M-0.375 2.25 C-2.48327055 5.41240582 -2.71317465 6.75657469 -3 10.4375 C-3.07476563 11.33855469 -3.14953125 12.23960938 -3.2265625 13.16796875 C-3.30003906 14.19857422 -3.30003906 14.19857422 -3.375 15.25 C-2.385 15.25 -1.395 15.25 -0.375 15.25 C0.32680531 13.8403653 1.01093958 12.42192359 1.6875 11 C2.07035156 10.21109375 2.45320313 9.4221875 2.84765625 8.609375 C3.71064091 5.99006478 3.55545933 4.80144824 2.625 2.25 C1.635 2.25 0.645 2.25 -0.375 2.25 Z " fill="#3396C6" transform="translate(28.375,8.75)"/>
<path d="M0 0 C0.61897694 7.11823485 -1.85044426 12.70088852 -5 19 C-6.875 18.8125 -6.875 18.8125 -9 18 C-10.5 15.8125 -10.5 15.8125 -11 13 C-9.125 9.6875 -9.125 9.6875 -7 7 C-5.7922442 10.62326739 -6.45688872 11.64146369 -8 15 C-7.34 15 -6.68 15 -6 15 C-4.68 10.71 -3.36 6.42 -2 2 C-4.97 2.66 -7.94 3.32 -11 4 C-11 3.01 -11 2.02 -11 1 C-7.32589215 -0.17571451 -3.83070817 -0.07366746 0 0 Z " fill="#8A4EBD" transform="translate(94,8)"/>
<path d="M0 0 C0 0.66 0 1.32 0 2 C-0.99 2.66 -1.98 3.32 -3 4 C-4.1577506 7.47325181 -4.06866652 10.36067448 -4 14 C-3.01 14 -2.02 14 -1 14 C-1.33 14.99 -1.66 15.98 -2 17 C-4.31 17.33 -6.62 17.66 -9 18 C-9 14.24426016 -8.58457376 10.8183582 -8.0234375 7.12109375 C-7.79725319 4.69327221 -7.79725319 4.69327221 -10 2 C-6.5980513 -0.09350689 -3.94727588 -0.17942163 0 0 Z " fill="#B125AA" transform="translate(136,8)"/>
<path d="M0 0 C0.99 0.66 1.98 1.32 3 2 C3.2487793 3.87939453 3.2487793 3.87939453 3.07421875 6.1328125 C2.99204102 7.34130859 2.99204102 7.34130859 2.90820312 8.57421875 C2.83537109 9.41597656 2.76253906 10.25773437 2.6875 11.125 C2.62626953 11.97449219 2.56503906 12.82398438 2.50195312 13.69921875 C2.34848609 15.80053665 2.17602278 17.90045124 2 20 C1.01 19.67 0.02 19.34 -1 19 C-0.67 15.04 -0.34 11.08 0 7 C-0.66 7 -1.32 7 -2 7 C-2.33 8.98 -2.66 10.96 -3 13 C-3.99 12.67 -4.98 12.34 -6 12 C-4.81819916 6.97734643 -3.55007718 3.9050849 0 0 Z " fill="#24A8CE" transform="translate(18,8)"/>
<path d="M0 0 C0.33 1.32 0.66 2.64 1 4 C0.34 4 -0.32 4 -1 4 C-1 3.34 -1 2.68 -1 2 C-1.78375 2.495 -2.5675 2.99 -3.375 3.5 C-6 5 -6 5 -8 5 C-8 6.65 -8 8.3 -8 10 C-8.99 10 -9.98 10 -11 10 C-10.74028905 6.19090609 -10.41701925 4.44018699 -7.75 1.625 C-4.80867557 -0.11305534 -3.3450389 -0.38229016 0 0 Z " fill="#4686C2" transform="translate(47,8)"/>
<path d="M0 0 C0.33 0 0.66 0 1 0 C2.12862175 5.36095333 2.09688221 10.55306686 2 16 C1.01 15.67 0.02 15.34 -1 15 C-0.67 11.04 -0.34 7.08 0 3 C-0.66 2.67 -1.32 2.34 -2 2 C-1.34 1.34 -0.68 0.68 0 0 Z " fill="#2C91B0" transform="translate(18,12)"/>
<path d="M0 0 C0.33 0.66 0.66 1.32 1 2 C1.763125 1.835 2.52625 1.67 3.3125 1.5 C6 1 6 1 9 1 C9 1.66 9 2.32 9 3 C6.36 3.99 3.72 4.98 1 6 C1 5.34 1 4.68 1 4 C0.01 4.33 -0.98 4.66 -2 5 C-2 4.34 -2 3.68 -2 3 C-1.34 3 -0.68 3 0 3 C0 2.01 0 1.02 0 0 Z " fill="#5973BB" transform="translate(52,15)"/>
<path d="M0 0 C0 0.66 0 1.32 0 2 C-0.99 2.66 -1.98 3.32 -3 4 C-4.19232613 6.05003955 -4.19232613 6.05003955 -5 8 C-5.33 8 -5.66 8 -6 8 C-6 6.35 -6 4.7 -6 3 C-6.66 2.67 -7.32 2.34 -8 2 C-4.91190305 0.23537317 -3.76687864 0 0 0 Z " fill="#C71BBA" transform="translate(136,8)"/>
<path d="M0 0 C1.98 0 3.96 0 6 0 C6.33 1.32 6.66 2.64 7 4 C5.02 4.99 5.02 4.99 3 6 C3.33 5.01 3.66 4.02 4 3 C2.35 2.67 0.7 2.34 -1 2 C-0.67 1.34 -0.34 0.68 0 0 Z " fill="#7569D0" transform="translate(67,16)"/>
<path d="M0 0 C0.99 0 1.98 0 3 0 C2.88637738 1.4800841 2.75877092 2.95910074 2.625 4.4375 C2.52058594 5.67306641 2.52058594 5.67306641 2.4140625 6.93359375 C2.27742188 7.61550781 2.14078125 8.29742187 2 9 C1.01 9.495 1.01 9.495 0 10 C0 6.7 0 3.4 0 0 Z " fill="#B035C5" transform="translate(106,9)"/>
<path d="M0 0 C1.22419811 3.67259434 0.54143712 4.57458418 -1 8 C-1.33 8.99 -1.66 9.98 -2 11 C-3.25 8.875 -3.25 8.875 -4 6 C-2.125 2.6875 -2.125 2.6875 0 0 Z " fill="#7F51B3" transform="translate(87,15)"/>
<path d="M0 0 C0.66 0 1.32 0 2 0 C1.34 2.97 0.68 5.94 0 9 C-0.99 8.67 -1.98 8.34 -3 8 C-1.125 1.125 -1.125 1.125 0 0 Z " fill="#22A3BF" transform="translate(15,12)"/>
<path d="M0 0 C0.99 0.33 1.98 0.66 3 1 C2.01 2.485 2.01 2.485 1 4 C3.97 4.495 3.97 4.495 7 5 C7 5.33 7 5.66 7 6 C4.69 6 2.38 6 0 6 C-0.38218767 4.34385343 -0.71395102 2.67542976 -1 1 C-0.67 0.67 -0.34 0.34 0 0 Z " fill="#656CBE" transform="translate(63,13)"/>
<path d="M0 0 C-0.33 0.66 -0.66 1.32 -1 2 C-4.63 2 -8.26 2 -12 2 C-7.93192322 -0.71205119 -4.69252613 -1.56417538 0 0 Z " fill="#576EB0" transform="translate(63,9)"/>
<path d="M0 0 C0.598125 0.350625 1.19625 0.70125 1.8125 1.0625 C-0.83488916 2.5231285 -2.08198334 3.0625 -5.1875 3.0625 C-5.1875 2.0725 -5.1875 1.0825 -5.1875 0.0625 C-2.1875 -0.9375 -2.1875 -0.9375 0 0 Z " fill="#A832B5" transform="translate(116.1875,23.9375)"/>
<path d="" fill="#574E6F" transform="translate(0,0)"/>
</svg>
